<svg xmlns="http://www.w3.org/2000/svg" viewBox="0 0 900 520" font-family="system-ui, -apple-system, sans-serif">
  <!-- Background -->
  <rect width="900" height="520" fill="#0d1220"/>

  <!-- Title -->
  <text x="450" y="36" text-anchor="middle" font-size="16" font-weight="700" fill="#e0e6f0">Eyestream — Architektur</text>

  <!-- User: Admin -->
  <g transform="translate(60, 80)">
    <circle cx="30" cy="18" r="14" fill="none" stroke="#8899bb" stroke-width="1.5"/>
    <line x1="30" y1="32" x2="30" y2="52" stroke="#8899bb" stroke-width="1.5"/>
    <line x1="14" y1="40" x2="46" y2="40" stroke="#8899bb" stroke-width="1.5"/>
    <line x1="30" y1="52" x2="18" y2="68" stroke="#8899bb" stroke-width="1.5"/>
    <line x1="30" y1="52" x2="42" y2="68" stroke="#8899bb" stroke-width="1.5"/>
    <text x="30" y="84" text-anchor="middle" font-size="11" fill="#8899bb">Admin</text>
  </g>

  <!-- User: Website visitor -->
  <g transform="translate(60, 340)">
    <circle cx="30" cy="18" r="14" fill="none" stroke="#8899bb" stroke-width="1.5"/>
    <line x1="30" y1="32" x2="30" y2="52" stroke="#8899bb" stroke-width="1.5"/>
    <line x1="14" y1="40" x2="46" y2="40" stroke="#8899bb" stroke-width="1.5"/>
    <line x1="30" y1="52" x2="18" y2="68" stroke="#8899bb" stroke-width="1.5"/>
    <line x1="30" y1="52" x2="42" y2="68" stroke="#8899bb" stroke-width="1.5"/>
    <text x="30" y="84" text-anchor="middle" font-size="11" fill="#8899bb">Website /</text>
    <text x="30" y="96" text-anchor="middle" font-size="11" fill="#8899bb">Wiki</text>
  </g>

  <!-- OAuth2-Proxy -->
  <rect x="180" y="80" width="160" height="70" rx="10" fill="#1a2258"/>
  <text x="260" y="110" text-anchor="middle" font-size="12" font-weight="600" fill="#D4E4F0">OAuth2-Proxy</text>
  <text x="260" y="128" text-anchor="middle" font-size="9" fill="#8899bb">Entra-ID SSO</text>

  <!-- App -->
  <rect x="400" y="60" width="200" height="110" rx="10" fill="#1a2258"/>
  <rect x="400" y="60" width="200" height="30" rx="10" fill="#ff7a2a"/>
  <text x="500" y="80" text-anchor="middle" font-size="13" font-weight="700" fill="#fff">App (FastAPI)</text>
  <text x="500" y="102" text-anchor="middle" font-size="9" fill="#8899bb">video-admin.example.com</text>
  <text x="500" y="118" text-anchor="middle" font-size="9" fill="#8899bb">Upload, Verwaltung, API</text>
  <text x="500" y="134" text-anchor="middle" font-size="9" fill="#8899bb">SSE, Stats, Activity</text>
  <text x="500" y="150" text-anchor="middle" font-size="9" fill="#8899bb">Poster-Extraktion (ffmpeg)</text>

  <!-- PostgreSQL -->
  <rect x="680" y="80" width="160" height="70" rx="10" fill="#1a2258"/>
  <text x="760" y="110" text-anchor="middle" font-size="12" font-weight="600" fill="#D4E4F0">PostgreSQL 18</text>
  <text x="760" y="128" text-anchor="middle" font-size="9" fill="#8899bb">Videos, Kategorien,</text>
  <text x="760" y="140" text-anchor="middle" font-size="9" fill="#8899bb">Activity, Heartbeat</text>

  <!-- Worker -->
  <rect x="680" y="220" width="160" height="90" rx="10" fill="#1a2258"/>
  <rect x="680" y="220" width="160" height="30" rx="10" fill="#ff7a2a"/>
  <text x="760" y="242" text-anchor="middle" font-size="13" font-weight="700" fill="#fff">Worker</text>
  <text x="760" y="266" text-anchor="middle" font-size="9" fill="#8899bb">ffmpeg Encoding</text>
  <text x="760" y="280" text-anchor="middle" font-size="9" fill="#8899bb">Preview-Thumbnails</text>
  <text x="760" y="294" text-anchor="middle" font-size="9" fill="#8899bb">Heartbeat + CPU%</text>

  <!-- Public Nginx -->
  <rect x="320" y="340" width="220" height="110" rx="10" fill="#176838"/>
  <text x="430" y="370" text-anchor="middle" font-size="13" font-weight="700" fill="#fff">Public Nginx</text>
  <text x="430" y="390" text-anchor="middle" font-size="9" fill="#a0d8b0">video.example.com</text>
  <text x="430" y="408" text-anchor="middle" font-size="9" fill="#a0d8b0">HLS-Streaming (.m3u8 + .m4s)</text>
  <text x="430" y="422" text-anchor="middle" font-size="9" fill="#a0d8b0">Embed-Player + oEmbed</text>
  <text x="430" y="436" text-anchor="middle" font-size="9" fill="#a0d8b0">Poster + Preview-Thumbnails</text>

  <!-- Shared Volume: hls -->
  <rect x="580" y="370" width="120" height="50" rx="8" fill="#141a2e" stroke="#2a3558" stroke-width="1"/>
  <text x="640" y="393" text-anchor="middle" font-size="10" font-weight="600" fill="#a0aac0">/data/hls</text>
  <text x="640" y="408" text-anchor="middle" font-size="8" fill="#607090">Shared Volume</text>

  <!-- Shared Volume: uploads -->
  <rect x="720" y="370" width="120" height="50" rx="8" fill="#141a2e" stroke="#2a3558" stroke-width="1"/>
  <text x="780" y="393" text-anchor="middle" font-size="10" font-weight="600" fill="#a0aac0">/data/uploads</text>
  <text x="780" y="408" text-anchor="middle" font-size="8" fill="#607090">Shared Volume</text>

  <!-- NPM Logs -->
  <rect x="400" y="470" width="140" height="36" rx="8" fill="#141a2e" stroke="#2a3558" stroke-width="1"/>
  <text x="470" y="492" text-anchor="middle" font-size="9" font-weight="600" fill="#a0aac0">NPM Logs (ro)</text>

  <!-- Arrows -->
  <line x1="110" y1="115" x2="173" y2="115" stroke="#8899bb" stroke-width="1.5"/>
  <polygon points="178,115 172,110 172,120" fill="#8899bb"/>
  <text x="145" y="108" text-anchor="middle" font-size="8" fill="#8899bb">HTTPS</text>

  <line x1="340" y1="115" x2="393" y2="115" stroke="#8899bb" stroke-width="1.5"/>
  <polygon points="398,115 392,110 392,120" fill="#8899bb"/>
  <text x="370" y="108" text-anchor="middle" font-size="8" fill="#8899bb">Auth</text>

  <line x1="600" y1="115" x2="673" y2="115" stroke="#8899bb" stroke-width="1.5"/>
  <polygon points="678,115 672,110 672,120" fill="#8899bb"/>
  <text x="640" y="108" text-anchor="middle" font-size="8" fill="#8899bb">SQL</text>

  <line x1="760" y1="220" x2="760" y2="157" stroke="#8899bb" stroke-width="1.5"/>
  <polygon points="760,152 755,158 765,158" fill="#8899bb"/>
  <text x="772" y="190" font-size="8" fill="#8899bb">SQL</text>

  <line x1="520" y1="170" x2="520" y2="230" stroke="#ff9a22" stroke-width="1.5" stroke-dasharray="4,3"/>
  <line x1="520" y1="230" x2="636" y2="364" stroke="#ff9a22" stroke-width="1.5" stroke-dasharray="4,3"/>
  <polygon points="640,368 631,365 639,359" fill="#ff9a22"/>
  <text x="555" y="285" font-size="8" fill="#ff9a22">Poster, HLS</text>

  <line x1="720" y1="310" x2="664" y2="364" stroke="#ff9a22" stroke-width="1.5" stroke-dasharray="4,3"/>
  <polygon points="660,368 662,359 669,366" fill="#ff9a22"/>
  <text x="705" y="345" font-size="8" fill="#ff9a22">Encode</text>

  <line x1="780" y1="310" x2="780" y2="365" stroke="#8899bb" stroke-width="1.5"/>
  <polygon points="780,370 775,364 785,364" fill="#8899bb"/>
  <text x="795" y="345" font-size="8" fill="#8899bb">Lesen</text>

  <line x1="540" y1="395" x2="575" y2="395" stroke="#2ecc71" stroke-width="1.5"/>
  <polygon points="580,395 574,390 574,400" fill="#2ecc71"/>
  <text x="558" y="388" font-size="8" fill="#2ecc71">Serve</text>

  <line x1="110" y1="395" x2="313" y2="395" stroke="#2ecc71" stroke-width="1.5"/>
  <polygon points="318,395 312,390 312,400" fill="#2ecc71"/>
  <text x="215" y="388" text-anchor="middle" font-size="8" fill="#2ecc71">HLS / Embed / oEmbed</text>

  <line x1="470" y1="170" x2="470" y2="465" stroke="#8899bb" stroke-width="1" stroke-dasharray="3,3"/>
  <polygon points="470,470 465,464 475,464" fill="#8899bb"/>
  <text x="458" y="460" font-size="8" fill="#8899bb" text-anchor="end">Referer-Analyse</text>
</svg>
